<?xml version="1.0" standalone="no"?><!DOCTYPE svg PUBLIC "-//W3C//DTD SVG 1.1//EN" "http://www.w3.org/Graphics/SVG/1.1/DTD/svg11.dtd"><svg t="1650961155831" class="icon" viewBox="0 0 1024 1024" version="1.1" xmlns="http://www.w3.org/2000/svg" p-id="3422" xmlns:xlink="http://www.w3.org/1999/xlink" width="200" height="200"><defs><style type="text/css">@font-face { font-family: feedback-iconfont; src: url("//at.alicdn.com/t/font_1031158_u69w8yhxdu.woff2?t=1630033759944") format("woff2"), url("//at.alicdn.com/t/font_1031158_u69w8yhxdu.woff?t=1630033759944") format("woff"), url("//at.alicdn.com/t/font_1031158_u69w8yhxdu.ttf?t=1630033759944") format("truetype"); }
</style></defs><path d="M923.136 969.557333H193.024v-909.653333h521.386667l208.725333 207.701333z" fill="#7CCDFF" p-id="3423"></path><path d="M770.048 804.522667v-21.674667c0-3.754667-3.584-6.826667-7.850667-6.826667h-9.898666c-4.266667 0-7.850667 3.072-7.850667 6.826667v20.650667c-10.581333 4.096-18.261333 13.824-19.114667 25.258666l-9.386666 2.048c-4.096 0.853333-6.656 4.778667-5.632 8.362667l2.389333 8.533333c1.024 3.754667 5.290667 5.973333 9.386667 4.949334l10.752-2.389334c5.632 6.144 13.824 9.898667 23.04 9.898667 17.066667 0 30.72-13.141333 30.72-29.354667 0.341333-11.605333-6.485333-21.504-16.554667-26.282666zM762.368 700.245333h-9.898667c-4.266667 0-7.850667 3.072-7.850666 6.826667v36.352c0 3.754667 3.584 6.826667 7.850666 6.826667h9.898667c4.266667 0 7.850667-3.072 7.850667-6.826667v-36.352c-0.170667-3.754667-3.584-6.826667-7.850667-6.826667zM677.888 846.336c-1.024-3.754667-5.290667-5.973333-9.386667-4.949333l-39.765333 8.874666c-4.096 0.853333-6.656 4.778667-5.632 8.362667l2.389333 8.533333c1.024 3.754667 5.290667 5.973333 9.386667 4.949334l39.765333-8.874667c4.096-0.853333 6.656-4.778667 5.632-8.362667l-2.389333-8.533333zM594.944 864.938667c-1.024-3.754667-5.290667-5.973333-9.386667-4.949334l-16.042666 3.584c-3.242667-4.949333-7.850667-8.704-13.312-11.093333v-163.498667c8.533333-3.754667 14.848-10.922667 17.066666-19.797333l157.696-29.696c3.242667 4.949333 7.850667 9.045333 13.482667 11.434667v12.629333c0 3.754667 3.584 6.826667 7.850667 6.826667h9.898666c4.266667 0 7.850667-3.072 7.850667-6.826667v-12.629333c10.581333-4.608 18.090667-14.848 18.090667-26.794667 0-16.213333-13.824-29.354667-30.72-29.354667-7.338667 0-14.165333 2.56-19.456 6.656L599.893333 544.426667c0-0.853333 0.170667-1.706667 0.170667-2.56 0-16.213333-13.824-29.354667-30.72-29.354667s-30.549333 12.970667-30.72 29.184l-149.333333 28.16c-5.632-7.168-14.506667-11.776-24.746667-11.776-17.066667 0-30.72 13.141333-30.72 29.354667 0 12.117333 7.68 22.528 18.602667 26.965333v162.986667c-10.922667 4.437333-18.602667 14.848-18.602667 26.965333 0 16.213333 13.824 29.354667 30.72 29.354667 7.850667 0 15.189333-2.901333 20.650667-7.509334l127.829333 52.736v0.341334c0 16.213333 13.824 29.354667 30.72 29.354666 14.506667 0 26.624-9.557333 29.866667-22.528l18.432-4.096c4.096-0.853333 6.656-4.778667 5.632-8.362666l-2.730667-8.704z m-217.258667-87.210667v-164.010667c2.389333-1.194667 4.778667-2.56 6.826667-4.266666l128.170667 52.906666c0.170667 11.776 7.509333 21.845333 18.090666 26.453334v163.498666c-2.56 1.194667-5.12 2.56-7.168 4.437334l-128.341333-53.077334c-0.341333-11.434667-7.509333-21.333333-17.578667-25.941333z m171.690667-213.504c5.290667 4.266667 12.288 6.826667 19.797333 6.826667 6.656 0 12.970667-2.048 17.92-5.461334l126.464 52.224-145.066666 27.306667c-5.632-7.509333-14.677333-12.458667-25.088-12.458667-7.850667 0-15.018667 2.730667-20.48 7.338667l-117.930667-48.64 144.384-27.136z" fill="#4191FB" p-id="3424"></path><path d="M912.896 253.952l2.56 671.914667c0 15.530667-12.458667 27.989333-27.989333 27.989333H237.909333c-15.530667 0-27.989333-12.458667-27.989333-27.989333V96.938667c0-15.530667 12.458667-27.989333 27.989333-27.989334l493.397334-1.024-38.912-39.936H239.274667c-36.352 0-65.706667 29.354667-65.706667 65.706667v835.584c0 36.352 29.354667 65.706667 65.706667 65.706667h646.826666c36.352 0 65.706667-29.354667 65.706667-65.706667V293.888l-38.912-39.936z" fill="#4191FB" p-id="3425"></path><path d="M692.394667 222.72c0 39.424 31.914667 71.338667 71.338666 71.338667h188.245334L692.394667 27.989333v194.730667z" fill="#C7E2FF" p-id="3426"></path><path d="M557.568 482.304H158.72c-50.346667 0-91.136-40.789333-91.136-91.136v-60.245333c0-50.346667 40.789333-91.136 91.136-91.136h398.848c50.346667 0 91.136 40.789333 91.136 91.136v60.245333c0 50.346667-40.789333 91.136-91.136 91.136z" fill="#4191FB" p-id="3427"></path><path d="M160.256 332.629333L116.053333 325.290667c3.754667-12.970667 10.752-23.04 21.162667-30.037334s25.258667-10.410667 44.373333-10.410666c22.016 0 37.888 3.754667 47.616 11.434666 9.728 7.509333 14.677333 17.066667 14.677334 28.501334 0 6.656-2.048 12.8-5.973334 18.261333s-9.898667 10.24-17.92 14.336c6.485333 1.536 11.434667 3.242667 14.848 5.290667 5.632 3.242667 9.898667 7.338667 12.970667 12.629333 3.072 5.290667 4.608 11.434667 4.608 18.602667 0 9.045333-2.56 17.749333-7.68 26.112s-12.458667 14.677333-22.186667 19.285333c-9.557333 4.437333-22.357333 6.826667-37.888 6.826667-15.36 0-27.306667-1.706667-36.181333-4.949334-8.874667-3.413333-16.042667-8.192-21.845333-14.677333-5.632-6.485333-10.069333-14.506667-13.141334-24.234667l46.592-5.802666c1.877333 8.704 4.608 14.677333 8.533334 18.090666s8.704 5.12 14.677333 5.12c6.314667 0 11.434667-2.048 15.701333-6.314666 4.096-4.266667 6.314667-9.898667 6.314667-17.066667s-2.048-12.8-5.973333-16.725333c-4.096-3.925333-9.386667-5.973333-16.384-5.973334-3.754667 0-8.704 0.853333-15.189334 2.56l2.389334-30.890666c2.56 0.341333 4.608 0.512 6.144 0.512 6.144 0 11.264-1.877333 15.36-5.461334 4.096-3.584 6.144-7.850667 6.144-12.8 0-4.778667-1.536-8.533333-4.608-11.434666-3.072-2.901333-7.338667-4.266667-12.629334-4.266667-5.461333 0-9.898667 1.536-13.482666 4.608-3.242667 3.072-5.632 8.533333-6.826667 16.213333zM279.893333 287.573333h77.141334c15.189333 0 27.477333 1.877333 36.864 5.802667 9.386667 3.754667 17.066667 9.386667 23.210666 16.384 6.144 7.168 10.581333 15.530667 13.312 24.917333 2.730667 9.557333 4.096 19.626667 4.096 30.208 0 16.725333-2.048 29.525333-6.144 38.741334-4.096 9.216-9.728 16.896-17.066666 23.04s-15.018667 10.24-23.381334 12.458666c-11.434667 2.901333-21.674667 4.266667-30.890666 4.266667H279.893333v-155.818667z m51.882667 35.328V407.893333h12.8c10.922667 0 18.602667-1.194667 23.210667-3.413333 4.608-2.218667 8.192-6.144 10.752-11.605333 2.56-5.632 3.925333-14.506667 3.925333-26.965334 0-16.554667-2.901333-27.818667-8.704-33.962666-5.802667-6.144-15.36-9.216-28.842667-9.216l-13.141333 0.170666zM452.778667 391.850667l49.493333-2.901334c1.024 7.509333 3.242667 13.141333 6.485333 17.066667 5.290667 6.314667 12.970667 9.386667 22.869334 9.386667 7.338667 0 13.141333-1.536 17.066666-4.778667 4.096-3.242667 5.973333-6.997333 5.973334-11.264 0-4.096-1.877333-7.68-5.802667-10.752-3.754667-3.242667-12.629333-6.144-26.624-9.045333-22.698667-4.778667-39.082667-11.093333-48.810667-18.944s-14.677333-17.92-14.677333-30.037334c0-8.021333 2.56-15.530667 7.509333-22.698666s12.458667-12.629333 22.528-16.725334c10.069333-4.096 23.893333-6.144 41.301334-6.144 21.504 0 37.888 3.754667 49.152 11.093334 11.264 7.338667 17.92 19.114667 20.138666 35.328l-48.981333 2.730666c-1.365333-6.997333-4.096-12.117333-8.192-15.36s-9.898667-4.778667-17.237333-4.778666c-5.973333 0-10.581333 1.194667-13.653334 3.584-3.072 2.389333-4.608 5.290667-4.608 8.704 0 2.56 1.194667 4.778667 3.754667 6.656 2.389333 2.048 8.192 3.925333 17.408 5.802666 22.698667 4.608 38.912 9.045333 48.810667 13.824 9.898667 4.608 16.896 10.410667 21.504 17.237334 4.437333 6.826667 6.656 14.506667 6.656 23.04 0 10.069333-2.901333 19.114667-8.874667 27.648-5.973333 8.362667-14.336 14.848-24.917333 19.114666-10.752 4.437333-24.234667 6.485333-40.448 6.485334-28.672 0-48.469333-5.12-59.392-15.36-10.752-10.24-17.066667-23.210667-18.432-38.912z" fill="#FFFFFF" p-id="3428"></path></svg>