<?xml version="1.0" standalone="no"?><!DOCTYPE svg PUBLIC "-//W3C//DTD SVG 1.1//EN" "http://www.w3.org/Graphics/SVG/1.1/DTD/svg11.dtd"><svg t="1648546331914" class="icon" viewBox="0 0 1024 1024" version="1.1" xmlns="http://www.w3.org/2000/svg" p-id="8695" xmlns:xlink="http://www.w3.org/1999/xlink" width="200" height="200"><defs><style type="text/css">@font-face { font-family: feedback-iconfont; src: url("//at.alicdn.com/t/font_1031158_u69w8yhxdu.woff2?t=1630033759944") format("woff2"), url("//at.alicdn.com/t/font_1031158_u69w8yhxdu.woff?t=1630033759944") format("woff"), url("//at.alicdn.com/t/font_1031158_u69w8yhxdu.ttf?t=1630033759944") format("truetype"); }
</style></defs><path d="M512 30.117647a481.882353 481.882353 0 1 0 481.882353 481.882353A481.882353 481.882353 0 0 0 512 30.117647z m210.823529 628.555294A45.176471 45.176471 0 0 1 658.672941 722.823529L512 575.849412 365.327059 722.823529A45.176471 45.176471 0 0 1 301.176471 658.672941L448.150588 512 301.176471 365.327059A45.176471 45.176471 0 0 1 365.327059 301.176471L512 448.150588 658.672941 301.176471A45.176471 45.176471 0 0 1 722.823529 365.327059L575.849412 512z" fill="#E52C2C" p-id="8696"></path></svg>