<?xml version="1.0" standalone="no"?><!DOCTYPE svg PUBLIC "-//W3C//DTD SVG 1.1//EN" "http://www.w3.org/Graphics/SVG/1.1/DTD/svg11.dtd"><svg t="1650963802481" class="icon" viewBox="0 0 1024 1024" version="1.1" xmlns="http://www.w3.org/2000/svg" p-id="52017" xmlns:xlink="http://www.w3.org/1999/xlink" width="200" height="200"><defs><style type="text/css">@font-face { font-family: feedback-iconfont; src: url("//at.alicdn.com/t/font_1031158_u69w8yhxdu.woff2?t=1630033759944") format("woff2"), url("//at.alicdn.com/t/font_1031158_u69w8yhxdu.woff?t=1630033759944") format("woff"), url("//at.alicdn.com/t/font_1031158_u69w8yhxdu.ttf?t=1630033759944") format("truetype"); }
</style></defs><path d="M675.1232 146.41152C820.1728 209.45408 921.6 354.00192 921.6 522.24c0 226.21696-183.38304 409.6-409.6 409.6s-409.6-183.38304-409.6-409.6c0-168.23808 101.4272-312.78592 246.4768-375.82848a165.1712 165.1712 0 0 0-0.67072 11.50464L348.16 161.792V440.32c0 90.48576 73.35424 163.84 163.84 163.84 89.57952 0 162.37056-71.89504 163.81952-161.1264L675.84 440.32V161.792c0-4.52608-0.18432-9.00608-0.54272-13.43488l-0.16896-1.9456zM512 71.68c67.8656 0 122.88 55.0144 122.88 122.88v245.76c0 67.8656-55.0144 122.88-122.88 122.88S389.12 508.1856 389.12 440.32V194.56c0-67.8656 55.0144-122.88 122.88-122.88z" fill="#6464FF" p-id="52018"></path></svg>