<?xml version="1.0" standalone="no"?><!DOCTYPE svg PUBLIC "-//W3C//DTD SVG 1.1//EN" "http://www.w3.org/Graphics/SVG/1.1/DTD/svg11.dtd"><svg t="1650963947841" class="icon" viewBox="0 0 1024 1024" version="1.1" xmlns="http://www.w3.org/2000/svg" p-id="53932" xmlns:xlink="http://www.w3.org/1999/xlink" width="200" height="200"><defs><style type="text/css">@font-face { font-family: feedback-iconfont; src: url("//at.alicdn.com/t/font_1031158_u69w8yhxdu.woff2?t=1630033759944") format("woff2"), url("//at.alicdn.com/t/font_1031158_u69w8yhxdu.woff?t=1630033759944") format("woff"), url("//at.alicdn.com/t/font_1031158_u69w8yhxdu.ttf?t=1630033759944") format("truetype"); }
</style></defs><path d="M902.095238 1005.226667H121.904762c-53.638095 0-97.52381-43.885714-97.52381-97.52381v-509.561905c0-31.695238 14.628571-60.952381 41.447619-80.457142L512 5.607619l446.171429 312.076191c26.819048 17.066667 41.447619 48.761905 41.447619 80.457142v509.561905c0 53.638095-43.885714 97.52381-97.52381 97.52381z" fill="#78909C" p-id="53933"></path><path d="M219.428571 273.798095h585.142858v536.380953H219.428571z" fill="#FFFFFF" p-id="53934"></path><path d="M512 337.188571l-146.285714 190.171429h292.571428z" fill="#9C27B0" p-id="53935"></path><path d="M902.095238 1005.226667H121.904762c-53.638095 0-97.52381-43.885714-97.52381-97.52381v-487.619047l487.619048 316.95238 487.619048-316.95238v487.619047c0 53.638095-43.885714 97.52381-97.52381 97.52381z" fill="#CFD8DC" p-id="53936"></path><path d="M512 688.274286l48.761905-31.695238v-163.352381h-97.52381v163.352381z" fill="#9C27B0" p-id="53937"></path></svg>