<?xml version="1.0" standalone="no"?><!DOCTYPE svg PUBLIC "-//W3C//DTD SVG 1.1//EN" "http://www.w3.org/Graphics/SVG/1.1/DTD/svg11.dtd"><svg t="1650962591120" class="icon" viewBox="0 0 1024 1024" version="1.1" xmlns="http://www.w3.org/2000/svg" p-id="5588" xmlns:xlink="http://www.w3.org/1999/xlink" width="200" height="200"><defs><style type="text/css">@font-face { font-family: feedback-iconfont; src: url("//at.alicdn.com/t/font_1031158_u69w8yhxdu.woff2?t=1630033759944") format("woff2"), url("//at.alicdn.com/t/font_1031158_u69w8yhxdu.woff?t=1630033759944") format("woff"), url("//at.alicdn.com/t/font_1031158_u69w8yhxdu.ttf?t=1630033759944") format("truetype"); }
</style></defs><path d="M512.89 224.97l0.91 320.02-278.5 160.79-0.9-320.02z" fill="#D8A066" p-id="5589"></path><path d="M512.02 866.48L234.4 705.25V385.76l276.71 160.71zM790.52 705.69l-277.21-160.7-0.42-320.02 276.72 160.71z" fill="#DCAB78" p-id="5590"></path><path d="M789.61 385.68l0.91 320.01-278.5 160.79-0.91-320.01z" fill="#D8A066" p-id="5591"></path><path d="M663.61 779.67l-0.22-76.4-36.65 21.16v76.53z" fill="#FFFFFF" opacity=".5" p-id="5592"></path><path d="M627.19 616.44l-116.08-67.45v-2.47l116.08 67.45zM905.69 455.61l-278.5 160.83v-2.47l278.5-160.83z" fill="#BB8B55" p-id="5593"></path><path d="M905.69 453.13l-116.08-67.45-278.5 160.83 116.08 67.46z" fill="#F1C18F" p-id="5594"></path><path d="M512.9 224.97l-116.07-67.45-278.52 160.83 116.08 67.46z" fill="#F1C18F" p-id="5595"></path><path d="M512.89 224.97l116.08-67.45 276.71 160.7-116.07 67.46z" fill="#F1C18F" p-id="5596"></path><path d="M395.03 616.44l116.08-67.45v-2.47l-116.08 67.45z" fill="#BB8B55" p-id="5597"></path><path d="M118.67 455.69l276.36 160.75v-2.47L118.67 453.22z" fill="#BB8B55" p-id="5598"></path><path d="M118.67 453.22l116.07-67.46 276.37 160.76-116.07 67.45z" fill="#F1C18F" p-id="5599"></path></svg>