<?xml version="1.0" standalone="no"?><!DOCTYPE svg PUBLIC "-//W3C//DTD SVG 1.1//EN" "http://www.w3.org/Graphics/SVG/1.1/DTD/svg11.dtd"><svg t="1650963480565" class="icon" viewBox="0 0 1024 1024" version="1.1" xmlns="http://www.w3.org/2000/svg" p-id="38374" xmlns:xlink="http://www.w3.org/1999/xlink" width="200" height="200"><defs><style type="text/css">@font-face { font-family: feedback-iconfont; src: url("//at.alicdn.com/t/font_1031158_u69w8yhxdu.woff2?t=1630033759944") format("woff2"), url("//at.alicdn.com/t/font_1031158_u69w8yhxdu.woff?t=1630033759944") format("woff"), url("//at.alicdn.com/t/font_1031158_u69w8yhxdu.ttf?t=1630033759944") format("truetype"); }
</style></defs><path d="M512 896m-96 0a96 96 0 1 0 192 0 96 96 0 1 0-192 0Z" fill="#E0EBFE" p-id="38375"></path><path d="M256 416m-96 0a96 96 0 1 0 192 0 96 96 0 1 0-192 0Z" fill="#E0EBFE" p-id="38376"></path><path d="M608 192h-192l96-160zM704 256h128v128h-128z" fill="#E0EBFE" p-id="38377"></path><path d="M384 416c0-70.592-57.408-128-128-128s-128 57.408-128 128c0 59.104 40.48 108.48 95.008 123.136v17.472c0 39.2 23.456 74.08 59.744 88.896L480 725.92v46.624c-55.04 14.304-96 64-96 123.456 0 70.592 57.408 128 128 128s128-57.408 128-128c0-59.456-40.96-109.12-96-123.456v-111.04l196.256-80A95.648 95.648 0 0 0 800 492.608V416h32a32 32 0 0 0 32-32V256a32 32 0 0 0-32-32h-128a32 32 0 0 0-32 32v128a32 32 0 0 0 32 32h32v76.608a31.904 31.904 0 0 1-19.936 29.632L544 592.416V224h64.64a32 32 0 0 0 23.936-53.248l-93.12-155.2c-11.584-19.296-43.328-19.296-54.88 0l-96 160A32 32 0 0 0 416 224h64v432.8L306.944 586.24a31.904 31.904 0 0 1-19.936-29.632v-16.832C342.56 525.824 384 475.84 384 416z m352-128h64v64h-64V288z m-263.488-128L512 94.208 551.488 160h-78.976zM512 832c35.296 0 64 28.704 64 64s-28.704 64-64 64-64-28.704-64-64 28.704-64 64-64zM256 480c-35.296 0-64-28.704-64-64s28.704-64 64-64 64 28.704 64 64-28.704 64-64 64z" fill="#5465CF" p-id="38378"></path></svg>