<?xml version="1.0" ?><!DOCTYPE svg  PUBLIC '-//W3C//DTD SVG 1.1//EN'  'http://www.w3.org/Graphics/SVG/1.1/DTD/svg11.dtd'><svg enable-background="new 0 0 128 128" id="Слой_1" version="1.1" viewBox="0 0 128 128" xml:space="preserve" xmlns="http://www.w3.org/2000/svg" xmlns:xlink="http://www.w3.org/1999/xlink"><g><g><path d="M109,34v75c0,8.3-6.7,15-15,15H34c-8.3,0-15-6.7-15-15V19c0-8.3,6.7-15,15-15h45L109,34z" fill="#F6F3E0"/></g><g><path d="M94,125.2H34c-9,0-16.2-7.3-16.2-16.2V19C17.8,10,25,2.8,34,2.8h45c0.3,0,0.6,0.1,0.9,0.4l30,30    c0.2,0.2,0.4,0.6,0.4,0.9v75C110.2,118,103,125.2,94,125.2z M34,5.2c-7.6,0-13.8,6.2-13.8,13.8v90c0,7.6,6.2,13.8,13.8,13.8h60    c7.6,0,13.8-6.2,13.8-13.8V34.5L78.5,5.2H34z" fill="#2D2E2D"/></g><g><path d="M94,110.2H34c-0.7,0-1.2-0.6-1.2-1.2s0.6-1.2,1.2-1.2h60c0.7,0,1.2,0.6,1.2,1.2S94.7,110.2,94,110.2z" fill="#2D2E2D"/></g><g><path d="M94,98.2H34c-0.7,0-1.2-0.6-1.2-1.2s0.6-1.2,1.2-1.2h60c0.7,0,1.2,0.6,1.2,1.2S94.7,98.2,94,98.2z" fill="#2D2E2D"/></g><g><path d="M94,86.2H34c-0.7,0-1.2-0.6-1.2-1.2s0.6-1.2,1.2-1.2h60c0.7,0,1.2,0.6,1.2,1.2S94.7,86.2,94,86.2z" fill="#2D2E2D"/></g><g opacity="0.1"><path d="M109,38v-4L79,4h-4v15c0,10.5,8.5,19,19,19H109z" fill="#030505"/></g><g><path d="M79,19c0,8.3,6.7,15,15,15h15L79,4V19z" fill="#52544F"/></g><g><path d="M109,35.2H94c-9,0-16.2-7.3-16.2-16.2V4c0-0.5,0.3-1,0.8-1.2c0.5-0.2,1-0.1,1.4,0.3l30,30    c0.4,0.4,0.5,0.9,0.3,1.4S109.5,35.2,109,35.2z M80.2,7v12c0,7.6,6.2,13.8,13.8,13.8h12L80.2,7z" fill="#2D2E2D"/></g><g><path d="M42,70.4    c0,0.8-0.6,1.2-1.3,1.2c-0.8,0-1.3-0.4-1.3-1.2V52.5c0-2.2,0.9-3.1,2.9-3.1h6.3c4.5,0,7,2.3,7,6.3c0,4.2-2.6,6.7-7.1,6.7H42V70.4z     M48.4,60c2.9,0,4.4-1.5,4.4-4.3c0-2.5-1.6-4-4.4-4h-5.4c-0.6,0-0.9,0.4-0.9,1V60H48.4z" fill="#2D2E2D" stroke="#2D2E2D" stroke-linecap="round" stroke-linejoin="round" stroke-miterlimit="10"/><path d="M59.2,50.5    c0-0.8,0.6-1.2,1.4-1.2c0.8,0,1.4,0.4,1.4,1.2v17.5c0,0.6,0.4,1,1,1h10c0.7,0,1.2,0.5,1.2,1.2c0,0.7-0.4,1.3-1.2,1.3H62.1    c-2,0-2.9-0.9-2.9-3V50.5z" fill="#2D2E2D" stroke="#2D2E2D" stroke-linecap="round" stroke-linejoin="round" stroke-miterlimit="10"/><path d="M87.6,49.8    c0.3-0.4,0.6-0.6,1-0.6c0.3,0,0.5,0.1,0.8,0.2c0.4,0.2,0.8,0.7,0.8,1.1c0,0.2-0.1,0.4-0.2,0.6l-7.5,11.2v8.1    c0,0.8-0.6,1.2-1.3,1.2c-0.8,0-1.4-0.4-1.4-1.2v-8.1l-7.5-11.2c-0.1-0.2-0.2-0.4-0.2-0.6c0-0.5,0.4-0.9,0.8-1.2    c0.3-0.1,0.5-0.2,0.8-0.2c0.4,0,0.7,0.2,1,0.6l6.4,10.1L87.6,49.8z" fill="#2D2E2D" stroke="#2D2E2D" stroke-linecap="round" stroke-linejoin="round" stroke-miterlimit="10"/></g></g></svg>