<?xml version="1.0" standalone="no"?><!DOCTYPE svg PUBLIC "-//W3C//DTD SVG 1.1//EN" "http://www.w3.org/Graphics/SVG/1.1/DTD/svg11.dtd"><svg t="1650961637164" class="icon" viewBox="0 0 1024 1024" version="1.1" xmlns="http://www.w3.org/2000/svg" p-id="6988" xmlns:xlink="http://www.w3.org/1999/xlink" width="200" height="200"><defs><style type="text/css">@font-face { font-family: feedback-iconfont; src: url("//at.alicdn.com/t/font_1031158_u69w8yhxdu.woff2?t=1630033759944") format("woff2"), url("//at.alicdn.com/t/font_1031158_u69w8yhxdu.woff?t=1630033759944") format("woff"), url("//at.alicdn.com/t/font_1031158_u69w8yhxdu.ttf?t=1630033759944") format("truetype"); }
</style></defs><path d="M824.888889 56.888889a56.888889 56.888889 0 0 1 56.888889 56.888889v796.444444a51.2 51.2 0 0 1-56.888889 56.888889H199.111111a56.888889 56.888889 0 0 1-56.888889-56.888889V113.777778a62.577778 62.577778 0 0 1 56.888889-56.888889h625.777778m0-56.888889H199.111111a113.777778 113.777778 0 0 0-113.777778 113.777778v796.444444a113.777778 113.777778 0 0 0 113.777778 113.777778h625.777778a113.777778 113.777778 0 0 0 113.777778-113.777778V113.777778a113.777778 113.777778 0 0 0-113.777778-113.777778z" fill="#1368E5" p-id="6989"></path><path d="M517.688889 654.222222h-11.377778L273.066667 529.066667c-11.377778-5.688889-17.066667-11.377778-17.066667-22.755556V284.444444c0-11.377778 5.688889-17.066667 17.066667-22.755555l238.933333-119.466667h22.755556l233.244444 113.777778c11.377778 5.688889 17.066667 11.377778 17.066667 22.755556v227.555555c0 11.377778-5.688889 17.066667-17.066667 22.755556l-233.244444 119.466666zM312.888889 489.244444l204.8 102.4 210.488889-102.4V301.511111L523.377778 204.8 312.888889 301.511111z" fill="#1368E5" p-id="6990"></path><path d="M523.377778 432.355556h-11.377778L290.133333 324.266667c-17.066667-11.377778-22.755556-28.444444-11.377777-39.822223s22.755556-22.755556 34.133333-11.377777l210.488889 102.4 204.8-102.4c11.377778-11.377778 28.444444-5.688889 34.133333 11.377777s5.688889 28.444444-11.377778 39.822223L534.755556 432.355556z" fill="#1368E5" p-id="6991"></path><path d="M517.688889 642.844444a34.133333 34.133333 0 0 1-28.444445-28.444444V403.911111a28.444444 28.444444 0 0 1 28.444445-28.444444 28.444444 28.444444 0 0 1 28.444444 28.444444v210.488889a28.444444 28.444444 0 0 1-28.444444 28.444444zM790.755556 762.311111H250.311111a28.444444 28.444444 0 0 1-28.444444-28.444444 28.444444 28.444444 0 0 1 28.444444-28.444445h540.444445a28.444444 28.444444 0 0 1 28.444444 28.444445 28.444444 28.444444 0 0 1-28.444444 28.444444zM790.755556 881.777778H585.955556a28.444444 28.444444 0 0 1 0-56.888889h204.8a28.444444 28.444444 0 0 1 0 56.888889zM369.777778 881.777778a34.133333 34.133333 0 0 1-34.133334-28.444445 28.444444 28.444444 0 0 1 28.444445-28.444444H369.777778a28.444444 28.444444 0 0 1 0 56.888889zM250.311111 881.777778a28.444444 28.444444 0 1 1 0-56.888889 28.444444 28.444444 0 0 1 0 56.888889zM483.555556 881.777778l-17.066667-11.377778a28.444444 28.444444 0 1 1 39.822222-39.822222 28.444444 28.444444 0 0 1 0 39.822222z" fill="#1368E5" p-id="6992"></path></svg>