<?xml version="1.0" standalone="no"?><!DOCTYPE svg PUBLIC "-//W3C//DTD SVG 1.1//EN" "http://www.w3.org/Graphics/SVG/1.1/DTD/svg11.dtd"><svg t="1646978567769" class="icon" viewBox="0 0 1024 1024" version="1.1" xmlns="http://www.w3.org/2000/svg" p-id="21858" xmlns:xlink="http://www.w3.org/1999/xlink" width="200" height="200"><defs><style type="text/css"></style></defs><path d="M505.806452 509.935484m-476.775226 0a476.775226 476.775226 0 1 0 953.550451 0 476.775226 476.775226 0 1 0-953.550451 0Z" fill="#FFA1B5" p-id="21859"></path><path d="M502.511484 967.461161c-263.349677 0-477.601032-215.613935-477.601032-480.635871S239.161806 6.193548 502.511484 6.193548s477.601032 215.609806 477.601032 480.631742-214.251355 480.635871-477.601032 480.635871z m0-919.97729c-240.582194 0-436.31071 197.086968-436.31071 439.341419 0 242.254452 195.728516 439.345548 436.31071 439.345549s436.31071-197.086968 436.31071-439.345549c0-242.254452-195.728516-439.341419-436.31071-439.341419z" opacity=".1" p-id="21860"></path><path d="M1007.351742 536.369548h-41.290323c0-242.250323-204.618323-439.33729-456.125935-439.33729S53.809548 294.119226 53.809548 536.369548h-41.290322C12.519226 271.351742 235.660387 55.741935 509.935484 55.741935s497.416258 215.609806 497.416258 480.627613z" fill="#FFFFFF" opacity=".49" p-id="21861"></path><path d="M505.806452 53.809548c251.507613 0 456.125935 204.618323 456.125935 456.125936 0 251.511742-204.618323 456.130065-456.125935 456.130064S49.680516 761.447226 49.680516 509.935484 254.298839 53.809548 505.806452 53.809548zM8.390194 509.935484c0 274.283355 223.141161 497.420387 497.416258 497.420387S1003.22271 784.218839 1003.22271 509.935484c0-274.275097-223.141161-497.416258-497.416258-497.416258S8.390194 235.660387 8.390194 509.935484z" fill="#6E6E96" p-id="21862"></path><path d="M683.354839 633.806452c0 22.709677-18.580645 41.290323-41.290323 41.290322h-247.741935c-22.709677 0-41.290323-18.580645-41.290323-41.290322v-247.741936c0-22.709677 18.580645-41.290323 41.290323-41.290322h247.741935c22.709677 0 41.290323 18.580645 41.290323 41.290322v247.741936z" fill="#FFFFFF" p-id="21863"></path><path d="M662.709677 633.806452c0 11.383742-9.261419 20.645161-20.645161 20.645161h-247.741935c-11.383742 0-20.645161-9.261419-20.645162-20.645161v-247.741936c0-11.383742 9.261419-20.645161 20.645162-20.645161h247.741935c11.383742 0 20.645161 9.261419 20.645161 20.645161v247.741936z m41.290323-247.741936c0-34.151226-27.784258-61.935484-61.935484-61.935484h-247.741935c-34.151226 0-61.935484 27.784258-61.935484 61.935484v247.741936c0 34.151226 27.784258 61.935484 61.935484 61.935483h247.741935c34.151226 0 61.935484-27.784258 61.935484-61.935483v-247.741936z" fill="#6E6E96" p-id="21864"></path></svg>