<?xml version="1.0" standalone="no"?><!DOCTYPE svg PUBLIC "-//W3C//DTD SVG 1.1//EN" "http://www.w3.org/Graphics/SVG/1.1/DTD/svg11.dtd"><svg t="1650961009490" class="icon" viewBox="0 0 1024 1024" version="1.1" xmlns="http://www.w3.org/2000/svg" p-id="1794" xmlns:xlink="http://www.w3.org/1999/xlink" width="200" height="200"><defs><style type="text/css">@font-face { font-family: feedback-iconfont; src: url("//at.alicdn.com/t/font_1031158_u69w8yhxdu.woff2?t=1630033759944") format("woff2"), url("//at.alicdn.com/t/font_1031158_u69w8yhxdu.woff?t=1630033759944") format("woff"), url("//at.alicdn.com/t/font_1031158_u69w8yhxdu.ttf?t=1630033759944") format("truetype"); }
</style></defs><path d="M574.900957 296.059223v611.763521s5.826203 75.377517 177.185105 75.377517 183.598824-75.377517 183.598824-75.377517V296.059223" fill="#FF9FA9" p-id="1795"></path><path d="M574.900957 750.641751s38.465994 62.105362 181.305879 62.105362c85.634571 0 133.329466-15.944538 179.47397-62.105362" fill="#FF9FA9" p-id="1796"></path><path d="M811.878079 979.605804c114.553426-14.981664 123.806807-71.78306 123.806807-71.78306V296.059223h-123.806807v683.546581z" fill="#9F5773" opacity=".16" p-id="1797"></path><path d="M660.919046 296.059223h-86.018089v611.763521s3.545497 45.699787 86.018089 65.928298V296.059223z" fill="#FFFFFF" opacity=".2" p-id="1798"></path><path d="M554.501088 296.059223v611.763521c0 0.526317 0.0204 1.048553 0.061199 1.57487 0.746635 9.640978 12.619359 94.202517 197.523775 94.202517 183.419305 0 202.199425-83.039708 203.737575-92.505248 0.175439-1.085273 0.261118-2.174626 0.261118-3.272139V296.059223h-40.799739v611.763521c0-1.097513 0.085679-2.186866 0.261119-3.272139 0.06936-0.416157 0.114239-0.611996 0.114239-0.611996-0.134639 0.587516-15.279502 58.861783-163.578392 58.861783-145.924345 0-156.801555-55.985401-156.842355-56.548438 0.0408 0.526317 0.0612 1.048553 0.061199 1.57487V296.059223h-40.799738z" fill="#6E6E96" p-id="1799"></path><path d="M574.900957 0v328.964213s5.826203 83.043788 177.185105 83.043788 183.598824-83.043788 183.598824-83.043788V0" fill="#F0F0FF" p-id="1800"></path><path d="M554.501088 0v328.964213c0 0.477357 0.01632 0.950634 0.053039 1.42799 0.289678 4.165653 9.31866 102.015666 197.531935 102.015667 195.234909 0 203.998693-102.411424 203.998693-103.443657V0h-40.799739v328.964213a20.146911 20.146911 0 0 1 0.297839-3.435338c-0.130559 0.660956-14.745026 66.079257-163.492713 66.079256-148.192811 0-156.789316-63.431354-156.834195-64.071909 0.03672 0.473277 0.05304 0.950634 0.053039 1.427991V0h-40.807898z" fill="#6E6E96" p-id="1801"></path><path d="M564.260385 284.325219c-4.989808 11.848244-9.188101 38.306875 6.736037 62.29304 21.619781 32.558191 71.562742 49.069846 148.449849 49.069846 198.449929 0 203.998693-86.254727 203.998693-87.123762V0h-40.799738v308.564343c0-1.236232 0.110159-2.464304 0.334557-3.680136 0.110159-0.599756 0.191759-0.885354 0.191759-0.885354-0.142799 0.509997-16.197496 50.893594-163.725271 50.893593-81.073161 0-109.620738-43.68836-117.454288-55.042927-8.070188-11.689125-0.199919 0.522237 0 0l-37.731598-15.5243z" fill="#6E6E96" opacity=".15" p-id="1802"></path><path d="M96.136424 296.059223v611.763521s5.826203 75.377517 177.185105 75.377517 183.598824-75.377517 183.598824-75.377517V296.059223" fill="#9FDCFF" p-id="1803"></path><path d="M333.113546 979.605804c114.553426-14.981664 123.806807-71.78306 123.806807-71.78306V296.059223H333.113546v683.546581z" fill="#9F5773" opacity=".16" p-id="1804"></path><path d="M182.154513 296.059223H96.136424v611.763521s3.545497 45.699787 86.018089 65.928298V296.059223z" fill="#FFFFFF" opacity=".2" p-id="1805"></path><path d="M75.736555 296.059223v611.763521c0 0.526317 0.0204 1.048553 0.061199 1.57487 0.746635 9.640978 12.619359 94.202517 197.523775 94.202517 183.419305 0 202.199425-83.039708 203.737575-92.505248 0.175439-1.085273 0.261118-2.174626 0.261118-3.272139V296.059223h-40.799738v611.763521c0-1.097513 0.085679-2.186866 0.261118-3.272139 0.06936-0.416157 0.114239-0.611996 0.114239-0.611996-0.134639 0.587516-15.279502 58.861783-163.578392 58.861783-145.924345 0-156.801555-55.985401-156.842355-56.548438 0.0408 0.526317 0.0612 1.048553 0.061199 1.57487V296.059223h-40.799738z" fill="#6E6E96" p-id="1806"></path><path d="M96.136424 0v328.964213s5.826203 83.043788 177.185105 83.043788 183.598824-83.043788 183.598824-83.043788V0" fill="#F0F0FF" p-id="1807"></path><path d="M75.736555 0v328.964213c0 0.477357 0.01632 0.950634 0.053039 1.42799 0.289678 4.161573 9.31866 102.015666 197.531935 102.015667 195.234909 0 203.998693-102.411424 203.998693-103.443657V0h-40.799738v328.964213a20.146911 20.146911 0 0 1 0.297838-3.435338c-0.130559 0.660956-14.745026 66.079257-163.492713 66.079256-148.192811 0-156.789316-63.431354-156.834195-64.071909 0.03672 0.473277 0.05304 0.950634 0.053039 1.427991V0H75.736555z" fill="#6E6E96" p-id="1808"></path><path d="M85.495852 284.325219c-4.989808 11.848244-9.188101 38.306875 6.736037 62.29304 21.619781 32.558191 71.562742 49.069846 148.449849 49.069846 198.449929 0 203.998693-86.254727 203.998693-87.123762V0h-40.799738v308.564343c0-1.236232 0.110159-2.464304 0.334557-3.680136 0.110159-0.599756 0.191759-0.885354 0.191759-0.885354-0.142799 0.509997-16.197496 50.893594-163.725271 50.893593-81.073161 0-109.620738-43.68836-117.454287-55.042927-8.070188-11.689125-0.199919 0.522237 0 0l-37.731599-15.5243z" fill="#6E6E96" opacity=".15" p-id="1809"></path></svg>