<?xml version="1.0" standalone="no"?><!DOCTYPE svg PUBLIC "-//W3C//DTD SVG 1.1//EN" "http://www.w3.org/Graphics/SVG/1.1/DTD/svg11.dtd"><svg t="1650963705335" class="icon" viewBox="0 0 1024 1024" version="1.1" xmlns="http://www.w3.org/2000/svg" p-id="50506" xmlns:xlink="http://www.w3.org/1999/xlink" width="200" height="200"><defs><style type="text/css">@font-face { font-family: feedback-iconfont; src: url("//at.alicdn.com/t/font_1031158_u69w8yhxdu.woff2?t=1630033759944") format("woff2"), url("//at.alicdn.com/t/font_1031158_u69w8yhxdu.woff?t=1630033759944") format("woff"), url("//at.alicdn.com/t/font_1031158_u69w8yhxdu.ttf?t=1630033759944") format("truetype"); }
</style></defs><path d="M966.784 233.6c0 3.2-1.024 6.208-3.008 9.024-1.984 2.624-4.224 4.032-6.784 4.032-20.032 1.984-36.416 8.384-49.024 19.2-12.8 10.816-25.792 31.808-39.232 62.4l-206.4 465.408c-1.408 4.416-5.184 6.4-11.392 6.4a13.12 13.12 0 0 1-11.392-6.4L523.776 551.68l-133.184 241.984c-2.816 4.416-6.4 6.4-11.392 6.4-6.016 0-9.792-2.176-11.776-6.4L164.8 328.448c-12.608-28.8-25.984-49.024-40-60.416s-33.6-18.624-58.624-21.184C64 246.848 61.952 245.632 60.16 243.456a11.072 11.072 0 0 1-2.816-7.808c0-7.616 2.176-11.392 6.4-11.392 17.984 0 36.992 0.832 56.832 2.432 18.432 1.6 35.584 2.432 51.776 2.432 16.384 0 36.032-0.832 58.432-2.432 23.424-1.6 44.224-2.432 62.4-2.432 4.416 0 6.4 3.776 6.4 11.392s-1.408 11.2-4.032 11.2c-17.984 1.408-32.384 6.016-42.816 13.824s-15.616 17.984-15.616 30.784c0 6.4 2.176 14.592 6.4 24.192l167.424 378.368 95.168-179.584-88.576-185.792c-16-33.216-28.992-54.592-39.168-64.192s-25.792-15.424-46.592-17.6c-1.984 0-3.584-1.216-5.376-3.392s-2.624-4.8-2.624-7.808c0-7.616 1.792-11.392 5.632-11.392 17.984 0 34.624 0.832 49.792 2.432 14.592 1.6 30.016 2.432 46.592 2.432 16.192 0 33.216-0.832 51.392-2.432 18.624-1.6 36.992-2.432 54.976-2.432 4.416 0 6.4 3.776 6.4 11.392s-1.216 11.2-4.032 11.2c-36.224 2.432-54.208 12.8-54.208 30.784 0 8 4.224 20.608 12.608 37.632l58.624 118.976 58.368-108.8c8-15.424 12.224-28.416 12.224-38.784 0-24.832-17.984-38.016-54.208-39.616-3.2 0-4.8-3.776-4.8-11.2 0-2.816 0.768-5.184 2.368-7.616s3.2-3.584 4.8-3.584c12.992 0 28.8 0.832 47.808 2.432 17.984 1.6 33.024 2.432 44.608 2.432 8.384 0 20.608-0.832 36.8-1.984 20.416-1.792 37.632-2.816 51.392-2.816 3.2 0 4.8 3.2 4.8 9.6 0 8.576-3.008 12.992-8.768 12.992-20.992 2.176-38.016 8-50.816 17.408s-28.8 30.784-48 64.384L569.92 472.256l105.216 214.4 155.392-361.408c5.376-13.184 8-25.408 8-36.416 0-26.368-17.984-40.384-54.208-42.176-3.2 0-4.8-3.776-4.8-11.2 0-7.616 2.368-11.392 7.232-11.392 13.184 0 28.8 0.832 46.976 2.432 16.768 1.6 30.784 2.432 41.984 2.432 12.032 0 25.6-0.832 41.216-2.432 16.192-1.6 30.784-2.432 43.776-2.432 4.032 0 6.016 3.2 6.016 9.6z" p-id="50507" fill="#1296db"></path></svg>